<svg width="53" height="20" viewBox="0 0 53 20" fill="none" xmlns="http://www.w3.org/2000/svg">
<path d="M52.5 0.171875V19.7676H47.8477V0.171875L52.5 0.171875Z" fill="white"/>
<path d="M47.2116 1.98164H43.2231V10.1534H41.4134V1.98164H37.418V0.171875H47.2116V1.98164Z" fill="white"/>
<path d="M35.9233 6.0745H30.2016V4.25081H35.9233V6.0745ZM36.7307 1.98164H29.4777V10.1534H27.668V1.08372C27.668 0.958428 27.6912 0.840097 27.7376 0.728727C27.784 0.617356 27.8466 0.519907 27.9255 0.43638C28.009 0.352852 28.1065 0.287886 28.2179 0.241481C28.3292 0.195077 28.4499 0.171875 28.5798 0.171875H36.7307V1.98164Z" fill="white"/>
<path d="M25.552 10.1534H23.7422V0.171875H25.552V10.1534Z" fill="white"/>
<path d="M13.4426 4.25081H19.7976V0.171875H21.6074V10.1534H19.7976V6.0745H13.4426V10.1534H11.6328V0.171875H13.4426V4.25081Z" fill="white"/>
<path d="M10.1113 7.21605C10.1113 7.57336 10.0649 7.89587 9.97211 8.18358C9.88394 8.46664 9.76561 8.71723 9.61712 8.93533C9.46862 9.15343 9.29461 9.33904 9.09507 9.49218C8.89553 9.64531 8.68903 9.7706 8.47557 9.86805C8.26211 9.9655 8.04401 10.0374 7.82127 10.0838C7.60317 10.1302 7.39667 10.1534 7.20177 10.1534H0.220246V8.34367H7.20177C7.54981 8.34367 7.81895 8.24158 8.00921 8.0374C8.20411 7.83323 8.30156 7.55944 8.30156 7.21605C8.30156 7.04899 8.27603 6.89586 8.22499 6.75665C8.17394 6.61743 8.0997 6.49678 8.00225 6.39469C7.90944 6.2926 7.79343 6.21372 7.65422 6.15803C7.51964 6.10234 7.36883 6.0745 7.20177 6.0745H3.03931C2.74696 6.0745 2.43141 6.02346 2.09266 5.92137C1.75391 5.81464 1.43836 5.64526 1.14601 5.41324C0.858306 5.18122 0.617003 4.87727 0.422105 4.5014C0.231848 4.12552 0.136719 3.66612 0.136719 3.12319C0.136719 2.58026 0.231848 2.12318 0.422105 1.75194C0.617003 1.37607 0.858306 1.07212 1.14601 0.840097C1.43836 0.603435 1.75391 0.434059 2.09266 0.33197C2.43141 0.22524 2.74696 0.171875 3.03931 0.171875H9.19948V1.98164H3.03931C2.69592 1.98164 2.42677 2.08605 2.23187 2.29487C2.04162 2.50369 1.94649 2.7798 1.94649 3.12319C1.94649 3.47122 2.04162 3.74733 2.23187 3.95151C2.42677 4.15104 2.69592 4.25081 3.03931 4.25081H7.20177H7.2157C7.41059 4.25545 7.61709 4.2833 7.83519 4.33434C8.05329 4.38075 8.26907 4.45499 8.48253 4.55708C8.70063 4.65917 8.90713 4.7891 9.10203 4.94688C9.29693 5.10001 9.46862 5.28563 9.61712 5.50373C9.77025 5.72183 9.8909 5.97241 9.97907 6.25548C10.0672 6.53855 10.1113 6.85873 10.1113 7.21605Z" fill="white"/>
<path d="M47.2129 17.2949C47.2129 17.5957 47.1738 17.8672 47.0957 18.1094C47.0215 18.3477 46.9219 18.5586 46.7969 18.7422C46.6719 18.9258 46.5254 19.082 46.3574 19.2109C46.1895 19.3398 46.0156 19.4453 45.8359 19.5273C45.6562 19.6094 45.4727 19.6699 45.2852 19.709C45.1016 19.748 44.9277 19.7676 44.7637 19.7676H38.8867V18.2441H44.7637C45.0566 18.2441 45.2832 18.1582 45.4434 17.9863C45.6074 17.8145 45.6895 17.584 45.6895 17.2949C45.6895 17.1543 45.668 17.0254 45.625 16.9082C45.582 16.791 45.5195 16.6895 45.4375 16.6035C45.3594 16.5176 45.2617 16.4512 45.1445 16.4043C45.0312 16.3574 44.9043 16.334 44.7637 16.334H41.2598C41.0137 16.334 40.748 16.291 40.4629 16.2051C40.1777 16.1152 39.9121 15.9727 39.666 15.7773C39.4238 15.582 39.2207 15.3262 39.0566 15.0098C38.8965 14.6934 38.8164 14.3066 38.8164 13.8496C38.8164 13.3926 38.8965 13.0078 39.0566 12.6953C39.2207 12.3789 39.4238 12.123 39.666 11.9277C39.9121 11.7285 40.1777 11.5859 40.4629 11.5C40.748 11.4102 41.0137 11.3652 41.2598 11.3652H46.4453V12.8887H41.2598C40.9707 12.8887 40.7441 12.9766 40.5801 13.1523C40.4199 13.3281 40.3398 13.5605 40.3398 13.8496C40.3398 14.1426 40.4199 14.375 40.5801 14.5469C40.7441 14.7148 40.9707 14.7988 41.2598 14.7988H44.7637H44.7754C44.9395 14.8027 45.1133 14.8262 45.2969 14.8691C45.4805 14.9082 45.6621 14.9707 45.8418 15.0566C46.0254 15.1426 46.1992 15.252 46.3633 15.3848C46.5273 15.5137 46.6719 15.6699 46.7969 15.8535C46.9258 16.0371 47.0273 16.248 47.1016 16.4863C47.1758 16.7246 47.2129 16.9941 47.2129 17.2949Z" fill="white"/>
<path d="M37.6074 14.1895C37.6074 14.5371 37.5645 14.8477 37.4785 15.1211C37.3926 15.3945 37.2754 15.6367 37.127 15.8477C36.9824 16.0547 36.8145 16.2324 36.623 16.3809C36.4316 16.5293 36.2305 16.6523 36.0195 16.75C35.8125 16.8438 35.6016 16.9121 35.3867 16.9551C35.1758 16.998 34.9766 17.0195 34.7891 17.0195L37.9707 19.7676H35.6152L32.4395 17.0195H31.3438V15.4961H34.7891C34.9805 15.4805 35.1543 15.4414 35.3105 15.3789C35.4707 15.3125 35.6074 15.2246 35.7207 15.1152C35.8379 15.0059 35.9277 14.875 35.9902 14.7227C36.0527 14.5664 36.084 14.3887 36.084 14.1895V13.2285C36.084 13.1426 36.0723 13.0781 36.0488 13.0352C36.0293 12.9883 36.002 12.9551 35.9668 12.9355C35.9355 12.9121 35.9004 12.8984 35.8613 12.8945C35.8262 12.8906 35.793 12.8887 35.7617 12.8887H30.7344V19.7676H29.2109V12.1328C29.2109 12.0273 29.2305 11.9277 29.2695 11.834C29.3086 11.7402 29.3613 11.6582 29.4277 11.5879C29.498 11.5176 29.5801 11.4629 29.6738 11.4238C29.7676 11.3848 29.8691 11.3652 29.9785 11.3652H35.7617C36.1016 11.3652 36.3887 11.4277 36.623 11.5527C36.8574 11.6738 37.0469 11.8281 37.1914 12.0156C37.3398 12.1992 37.4453 12.3984 37.5078 12.6133C37.5742 12.8281 37.6074 13.0293 37.6074 13.2168V14.1895Z" fill="white"/>
<path d="M27.4375 19.7676H25.9141V17.7051H20.5586V19.7676H19.0352V15.5664C19.0352 14.9531 19.1406 14.3887 19.3516 13.873C19.5625 13.3574 19.8555 12.9141 20.2305 12.543C20.6055 12.1719 21.0488 11.8828 21.5605 11.6758C22.0723 11.4688 22.6309 11.3652 23.2363 11.3652H26.6699C26.7754 11.3652 26.875 11.3848 26.9688 11.4238C27.0625 11.4629 27.1445 11.5176 27.2148 11.5879C27.2852 11.6582 27.3398 11.7402 27.3789 11.834C27.418 11.9277 27.4375 12.0273 27.4375 12.1328V19.7676ZM20.5586 16.1816H25.9141V12.8887H23.2363C23.1895 12.8887 23.0898 12.8965 22.9375 12.9121C22.7891 12.9238 22.6152 12.957 22.416 13.0117C22.2207 13.0664 22.0137 13.1504 21.7949 13.2637C21.5762 13.377 21.375 13.5332 21.1914 13.7324C21.0078 13.9316 20.8555 14.1816 20.7344 14.4824C20.6172 14.7793 20.5586 15.1406 20.5586 15.5664V16.1816Z" fill="white"/>
<path d="M17.0293 16.334H12.2188V14.7988H17.0293V16.334ZM17.7148 19.7676H12.2188C12.0078 19.7676 11.7773 19.7305 11.5273 19.6562C11.2773 19.582 11.0449 19.4609 10.8301 19.293C10.6191 19.1211 10.4414 18.9004 10.2969 18.6309C10.1562 18.3574 10.0859 18.0234 10.0859 17.6289V12.1328C10.0859 12.0273 10.1055 11.9277 10.1445 11.834C10.1836 11.7402 10.2363 11.6582 10.3027 11.5879C10.373 11.5176 10.4551 11.4629 10.5488 11.4238C10.6426 11.3848 10.7441 11.3652 10.8535 11.3652H17.7148V12.8887H11.6094V17.6289C11.6094 17.8281 11.6621 17.9805 11.7676 18.0859C11.873 18.1914 12.0273 18.2441 12.2305 18.2441H17.7148V19.7676Z" fill="white"/>
<path d="M8.53516 19C8.53516 19.1094 8.51562 19.2109 8.47656 19.3047C8.4375 19.3984 8.38281 19.4805 8.3125 19.5508C8.24609 19.6172 8.16602 19.6699 8.07227 19.709C7.97852 19.748 7.87695 19.7676 7.76758 19.7676H2.27148C2.13086 19.7676 1.97852 19.752 1.81445 19.7207C1.6543 19.6855 1.49414 19.6328 1.33398 19.5625C1.17773 19.4922 1.02734 19.4023 0.882812 19.293C0.738281 19.1797 0.609375 19.0449 0.496094 18.8887C0.386719 18.7285 0.298828 18.5449 0.232422 18.3379C0.166016 18.127 0.132812 17.8906 0.132812 17.6289V13.5039C0.132812 13.3633 0.148438 13.2129 0.179688 13.0527C0.214844 12.8887 0.267578 12.7285 0.337891 12.5723C0.408203 12.4121 0.5 12.2598 0.613281 12.1152C0.726562 11.9707 0.861328 11.8438 1.01758 11.7344C1.17773 11.6211 1.36133 11.5312 1.56836 11.4648C1.77539 11.3984 2.00977 11.3652 2.27148 11.3652H8.46484V12.8887H2.27148C2.07227 12.8887 1.91992 12.9414 1.81445 13.0469C1.70898 13.1523 1.65625 13.3086 1.65625 13.5156V17.6289C1.65625 17.8242 1.70898 17.9766 1.81445 18.0859C1.92383 18.1914 2.07617 18.2441 2.27148 18.2441H7.01172V16.334H2.95703V14.7988H7.76758C7.87695 14.7988 7.97852 14.8203 8.07227 14.8633C8.16602 14.9023 8.24609 14.957 8.3125 15.0273C8.38281 15.0977 8.4375 15.1797 8.47656 15.2734C8.51562 15.3633 8.53516 15.4609 8.53516 15.5664V19Z" fill="white"/>
<path d="M50.1739 17.9522C49.9302 17.9522 49.7208 17.8877 49.5459 17.7586C49.371 17.6296 49.2362 17.4489 49.1416 17.2166C49.0498 16.9815 49.0039 16.7076 49.0039 16.395C49.0039 16.0825 49.0498 15.81 49.1416 15.5778C49.2362 15.3426 49.371 15.1605 49.5459 15.0315C49.7208 14.9024 49.9302 14.8379 50.1739 14.8379C50.4177 14.8379 50.627 14.9024 50.8019 15.0315C50.9769 15.1605 51.1102 15.3426 51.202 15.5778C51.2966 15.81 51.3439 16.0825 51.3439 16.395C51.3439 16.7076 51.2966 16.9815 51.202 17.2166C51.1102 17.4489 50.9769 17.6296 50.8019 17.7586C50.627 17.8877 50.4177 17.9522 50.1739 17.9522ZM50.1739 17.6124C50.4119 17.6124 50.6041 17.5063 50.7503 17.2941C50.8994 17.0819 50.974 16.7822 50.974 16.395C50.974 16.0079 50.8994 15.7082 50.7503 15.496C50.6041 15.2838 50.4119 15.1777 50.1739 15.1777C49.933 15.1777 49.7395 15.2838 49.5932 15.496C49.447 15.7082 49.3738 16.0079 49.3738 16.395C49.3738 16.7822 49.447 17.0819 49.5932 17.2941C49.7395 17.5063 49.933 17.6124 50.1739 17.6124Z" fill="black"/>
<path d="M49.0977 13.6009V10.5898H49.4848L50.173 12.0223L50.8613 10.5898H51.2484V13.6009H50.8957V11.2867L50.3107 12.504H50.0354L49.4504 11.291V13.6009H49.0977Z" fill="black"/>
<path d="M49.2539 9.29818V6.28711H51.1337V6.61403H49.6152V7.61628H51.0046V7.9432H49.6152V8.97126H51.1337V9.29818H49.2539Z" fill="black"/>
<path d="M49.1641 4.9974V1.98633H49.7964C50.2896 1.98633 50.6538 2.12111 50.889 2.39067C51.127 2.66023 51.246 3.0273 51.246 3.49186C51.246 3.95643 51.127 4.32349 50.889 4.59305C50.6538 4.86262 50.2896 4.9974 49.7964 4.9974H49.1641ZM49.5254 4.66618H49.7878C50.0516 4.66618 50.2624 4.61743 50.4201 4.51993C50.5807 4.42243 50.6968 4.28621 50.7685 4.11128C50.8402 3.93635 50.8761 3.72988 50.8761 3.49186C50.8761 3.25384 50.8402 3.04737 50.7685 2.87244C50.6968 2.69751 50.5807 2.5613 50.4201 2.4638C50.2624 2.3663 50.0516 2.31755 49.7878 2.31755H49.5254V4.66618Z" fill="black"/>
</svg>
