<svg width="54" height="20" viewBox="0 0 54 20" fill="none" xmlns="http://www.w3.org/2000/svg">
<path d="M53.2656 0.03125V19.627H48.6133V0.03125L53.2656 0.03125Z" fill="#F25603"/>
<path d="M47.9772 1.84102H43.9888V10.0128H42.179V1.84102H38.1836V0.03125H47.9772V1.84102Z" fill="black"/>
<path d="M36.6889 5.93388H30.9673V4.11019H36.6889V5.93388ZM37.4964 1.84102H30.2434V10.0128H28.4336V0.943095C28.4336 0.817803 28.4568 0.699472 28.5032 0.588102C28.5496 0.476731 28.6123 0.379282 28.6911 0.295755C28.7747 0.212227 28.8721 0.147261 28.9835 0.100856C29.0949 0.0544522 29.2155 0.03125 29.3454 0.03125H37.4964V1.84102Z" fill="black"/>
<path d="M26.3176 10.0128H24.5078V0.03125H26.3176V10.0128Z" fill="black"/>
<path d="M14.2082 4.11019H20.5633V0.03125H22.373V10.0128H20.5633V5.93388H14.2082V10.0128H12.3984V0.03125H14.2082V4.11019Z" fill="black"/>
<path d="M10.8769 7.07542C10.8769 7.43274 10.8305 7.75525 10.7377 8.04295C10.6496 8.32602 10.5312 8.5766 10.3827 8.7947C10.2342 9.0128 10.0602 9.19842 9.86069 9.35155C9.66116 9.50469 9.45466 9.62998 9.2412 9.72743C9.02774 9.82488 8.80964 9.8968 8.5869 9.94321C8.3688 9.98961 8.1623 10.0128 7.9674 10.0128H0.985871V8.20305H7.9674C8.31543 8.20305 8.58458 8.10096 8.77483 7.89678C8.96973 7.6926 9.06718 7.41881 9.06718 7.07542C9.06718 6.90837 9.04166 6.75523 8.99061 6.61602C8.93957 6.47681 8.86532 6.35616 8.76787 6.25407C8.67506 6.15198 8.55905 6.07309 8.41984 6.0174C8.28527 5.96172 8.13445 5.93388 7.9674 5.93388H3.80493C3.51259 5.93388 3.19704 5.88283 2.85829 5.78074C2.51953 5.67401 2.20398 5.50464 1.91164 5.27262C1.62393 5.04059 1.38263 4.73665 1.18773 4.36077C0.997473 3.9849 0.902344 3.52549 0.902344 2.98256C0.902344 2.43963 0.997473 1.98255 1.18773 1.61132C1.38263 1.23544 1.62393 0.931493 1.91164 0.699472C2.20398 0.46281 2.51953 0.293434 2.85829 0.191345C3.19704 0.0846149 3.51259 0.03125 3.80493 0.03125H9.9651V1.84102H3.80493C3.46154 1.84102 3.1924 1.94543 2.9975 2.15425C2.80724 2.36307 2.71211 2.63917 2.71211 2.98256C2.71211 3.3306 2.80724 3.6067 2.9975 3.81088C3.1924 4.01042 3.46154 4.11019 3.80493 4.11019H7.9674H7.98132C8.17622 4.11483 8.38272 4.14267 8.60082 4.19372C8.81892 4.24012 9.0347 4.31437 9.24816 4.41646C9.46626 4.51855 9.67276 4.64848 9.86765 4.80625C10.0626 4.95939 10.2342 5.145 10.3827 5.3631C10.5359 5.5812 10.6565 5.83179 10.7447 6.11485C10.8329 6.39792 10.8769 6.71811 10.8769 7.07542Z" fill="black"/>
<path d="M47.9785 17.1543C47.9785 17.4551 47.9395 17.7266 47.8613 17.9688C47.7871 18.207 47.6875 18.418 47.5625 18.6016C47.4375 18.7852 47.291 18.9414 47.123 19.0703C46.9551 19.1992 46.7812 19.3047 46.6016 19.3867C46.4219 19.4688 46.2383 19.5293 46.0508 19.5684C45.8672 19.6074 45.6934 19.627 45.5293 19.627H39.6523V18.1035H45.5293C45.8223 18.1035 46.0488 18.0176 46.209 17.8457C46.373 17.6738 46.4551 17.4434 46.4551 17.1543C46.4551 17.0137 46.4336 16.8848 46.3906 16.7676C46.3477 16.6504 46.2852 16.5488 46.2031 16.4629C46.125 16.377 46.0273 16.3105 45.9102 16.2637C45.7969 16.2168 45.6699 16.1934 45.5293 16.1934H42.0254C41.7793 16.1934 41.5137 16.1504 41.2285 16.0645C40.9434 15.9746 40.6777 15.832 40.4316 15.6367C40.1895 15.4414 39.9863 15.1855 39.8223 14.8691C39.6621 14.5527 39.582 14.166 39.582 13.709C39.582 13.252 39.6621 12.8672 39.8223 12.5547C39.9863 12.2383 40.1895 11.9824 40.4316 11.7871C40.6777 11.5879 40.9434 11.4453 41.2285 11.3594C41.5137 11.2695 41.7793 11.2246 42.0254 11.2246H47.2109V12.748H42.0254C41.7363 12.748 41.5098 12.8359 41.3457 13.0117C41.1855 13.1875 41.1055 13.4199 41.1055 13.709C41.1055 14.002 41.1855 14.2344 41.3457 14.4062C41.5098 14.5742 41.7363 14.6582 42.0254 14.6582H45.5293H45.541C45.7051 14.6621 45.8789 14.6855 46.0625 14.7285C46.2461 14.7676 46.4277 14.8301 46.6074 14.916C46.791 15.002 46.9648 15.1113 47.1289 15.2441C47.293 15.373 47.4375 15.5293 47.5625 15.7129C47.6914 15.8965 47.793 16.1074 47.8672 16.3457C47.9414 16.584 47.9785 16.8535 47.9785 17.1543Z" fill="black"/>
<path d="M38.373 14.0488C38.373 14.3965 38.3301 14.707 38.2441 14.9805C38.1582 15.2539 38.041 15.4961 37.8926 15.707C37.748 15.9141 37.5801 16.0918 37.3887 16.2402C37.1973 16.3887 36.9961 16.5117 36.7852 16.6094C36.5781 16.7031 36.3672 16.7715 36.1523 16.8145C35.9414 16.8574 35.7422 16.8789 35.5547 16.8789L38.7363 19.627H36.3809L33.2051 16.8789H32.1094V15.3555H35.5547C35.7461 15.3398 35.9199 15.3008 36.0762 15.2383C36.2363 15.1719 36.373 15.084 36.4863 14.9746C36.6035 14.8652 36.6934 14.7344 36.7559 14.582C36.8184 14.4258 36.8496 14.248 36.8496 14.0488V13.0879C36.8496 13.002 36.8379 12.9375 36.8145 12.8945C36.7949 12.8477 36.7676 12.8145 36.7324 12.7949C36.7012 12.7715 36.666 12.7578 36.627 12.7539C36.5918 12.75 36.5586 12.748 36.5273 12.748H31.5V19.627H29.9766V11.9922C29.9766 11.8867 29.9961 11.7871 30.0352 11.6934C30.0742 11.5996 30.127 11.5176 30.1934 11.4473C30.2637 11.377 30.3457 11.3223 30.4395 11.2832C30.5332 11.2441 30.6348 11.2246 30.7441 11.2246H36.5273C36.8672 11.2246 37.1543 11.2871 37.3887 11.4121C37.623 11.5332 37.8125 11.6875 37.957 11.875C38.1055 12.0586 38.2109 12.2578 38.2734 12.4727C38.3398 12.6875 38.373 12.8887 38.373 13.0762V14.0488Z" fill="black"/>
<path d="M28.2031 19.627H26.6797V17.5645H21.3242V19.627H19.8008V15.4258C19.8008 14.8125 19.9062 14.248 20.1172 13.7324C20.3281 13.2168 20.6211 12.7734 20.9961 12.4023C21.3711 12.0312 21.8145 11.7422 22.3262 11.5352C22.8379 11.3281 23.3965 11.2246 24.002 11.2246H27.4355C27.541 11.2246 27.6406 11.2441 27.7344 11.2832C27.8281 11.3223 27.9102 11.377 27.9805 11.4473C28.0508 11.5176 28.1055 11.5996 28.1445 11.6934C28.1836 11.7871 28.2031 11.8867 28.2031 11.9922V19.627ZM21.3242 16.041H26.6797V12.748H24.002C23.9551 12.748 23.8555 12.7559 23.7031 12.7715C23.5547 12.7832 23.3809 12.8164 23.1816 12.8711C22.9863 12.9258 22.7793 13.0098 22.5605 13.123C22.3418 13.2363 22.1406 13.3926 21.957 13.5918C21.7734 13.791 21.6211 14.041 21.5 14.3418C21.3828 14.6387 21.3242 15 21.3242 15.4258V16.041Z" fill="black"/>
<path d="M17.7949 16.1934H12.9844V14.6582H17.7949V16.1934ZM18.4805 19.627H12.9844C12.7734 19.627 12.543 19.5898 12.293 19.5156C12.043 19.4414 11.8105 19.3203 11.5957 19.1523C11.3848 18.9805 11.207 18.7598 11.0625 18.4902C10.9219 18.2168 10.8516 17.8828 10.8516 17.4883V11.9922C10.8516 11.8867 10.8711 11.7871 10.9102 11.6934C10.9492 11.5996 11.002 11.5176 11.0684 11.4473C11.1387 11.377 11.2207 11.3223 11.3145 11.2832C11.4082 11.2441 11.5098 11.2246 11.6191 11.2246H18.4805V12.748H12.375V17.4883C12.375 17.6875 12.4277 17.8398 12.5332 17.9453C12.6387 18.0508 12.793 18.1035 12.9961 18.1035H18.4805V19.627Z" fill="black"/>
<path d="M9.30078 18.8594C9.30078 18.9688 9.28125 19.0703 9.24219 19.1641C9.20312 19.2578 9.14844 19.3398 9.07812 19.4102C9.01172 19.4766 8.93164 19.5293 8.83789 19.5684C8.74414 19.6074 8.64258 19.627 8.5332 19.627H3.03711C2.89648 19.627 2.74414 19.6113 2.58008 19.5801C2.41992 19.5449 2.25977 19.4922 2.09961 19.4219C1.94336 19.3516 1.79297 19.2617 1.64844 19.1523C1.50391 19.0391 1.375 18.9043 1.26172 18.748C1.15234 18.5879 1.06445 18.4043 0.998047 18.1973C0.931641 17.9863 0.898438 17.75 0.898438 17.4883V13.3633C0.898438 13.2227 0.914062 13.0723 0.945312 12.9121C0.980469 12.748 1.0332 12.5879 1.10352 12.4316C1.17383 12.2715 1.26562 12.1191 1.37891 11.9746C1.49219 11.8301 1.62695 11.7031 1.7832 11.5938C1.94336 11.4805 2.12695 11.3906 2.33398 11.3242C2.54102 11.2578 2.77539 11.2246 3.03711 11.2246H9.23047V12.748H3.03711C2.83789 12.748 2.68555 12.8008 2.58008 12.9062C2.47461 13.0117 2.42188 13.168 2.42188 13.375V17.4883C2.42188 17.6836 2.47461 17.8359 2.58008 17.9453C2.68945 18.0508 2.8418 18.1035 3.03711 18.1035H7.77734V16.1934H3.72266V14.6582H8.5332C8.64258 14.6582 8.74414 14.6797 8.83789 14.7227C8.93164 14.7617 9.01172 14.8164 9.07812 14.8867C9.14844 14.957 9.20312 15.0391 9.24219 15.1328C9.28125 15.2227 9.30078 15.3203 9.30078 15.4258V18.8594Z" fill="black"/>
<path d="M50.9395 17.8116C50.6958 17.8116 50.4865 17.747 50.3115 17.618C50.1366 17.489 50.0018 17.3083 49.9072 17.076C49.8154 16.8409 49.7695 16.567 49.7695 16.2544C49.7695 15.9418 49.8154 15.6694 49.9072 15.4371C50.0018 15.202 50.1366 15.0199 50.3115 14.8908C50.4865 14.7618 50.6958 14.6973 50.9395 14.6973C51.1833 14.6973 51.3926 14.7618 51.5676 14.8908C51.7425 15.0199 51.8758 15.202 51.9676 15.4371C52.0622 15.6694 52.1096 15.9418 52.1096 16.2544C52.1096 16.567 52.0622 16.8409 51.9676 17.076C51.8758 17.3083 51.7425 17.489 51.5676 17.618C51.3926 17.747 51.1833 17.8116 50.9395 17.8116ZM50.9395 17.4718C51.1776 17.4718 51.3697 17.3656 51.516 17.1534C51.6651 16.9412 51.7396 16.6416 51.7396 16.2544C51.7396 15.8673 51.6651 15.5676 51.516 15.3554C51.3697 15.1432 51.1776 15.0371 50.9395 15.0371C50.6987 15.0371 50.5051 15.1432 50.3588 15.3554C50.2126 15.5676 50.1395 15.8673 50.1395 16.2544C50.1395 16.6416 50.2126 16.9412 50.3588 17.1534C50.5051 17.3656 50.6987 17.4718 50.9395 17.4718Z" fill="white"/>
<path d="M49.8633 13.4603V10.4492H50.2504L50.9387 11.8816L51.6269 10.4492H52.014V13.4603H51.6613V11.1461L51.0763 12.3634H50.801L50.216 11.1504V13.4603H49.8633Z" fill="white"/>
<path d="M50.0195 9.15755V6.14648H51.8993V6.4734H50.3809V7.47566H51.7703V7.80257H50.3809V8.83064H51.8993V9.15755H50.0195Z" fill="white"/>
<path d="M49.9297 4.85677V1.8457H50.562C51.0553 1.8457 51.4194 1.98048 51.6546 2.25005C51.8926 2.51961 52.0116 2.88667 52.0116 3.35124C52.0116 3.8158 51.8926 4.18287 51.6546 4.45243C51.4194 4.72199 51.0553 4.85677 50.562 4.85677H49.9297ZM50.291 4.52555H50.5534C50.8172 4.52555 51.028 4.4768 51.1857 4.3793C51.3463 4.2818 51.4625 4.14559 51.5342 3.97066C51.6058 3.79573 51.6417 3.58926 51.6417 3.35124C51.6417 3.11322 51.6058 2.90675 51.5342 2.73182C51.4625 2.55689 51.3463 2.42067 51.1857 2.32317C51.028 2.22567 50.8172 2.17692 50.5534 2.17692H50.291V4.52555Z" fill="white"/>
</svg>
