<svg width="52" height="19" viewBox="0 0 52 19" fill="none" xmlns="http://www.w3.org/2000/svg">
<path d="M51.8438 2.61133V8.82812H37.8984V2.61133L51.8438 2.61133Z" fill="#D50032"/>
<path d="M40.2949 1.94922H36.9375V8.82812H35.4141V1.94922H32.0508V0.425781H40.2949V1.94922Z" fill="black"/>
<path d="M30.793 5.39453H25.9766V3.85938H30.793V5.39453ZM31.4727 1.94922H25.3672V8.82812H23.8438V1.19336C23.8438 1.08789 23.8633 0.988281 23.9023 0.894531C23.9414 0.800781 23.9941 0.71875 24.0605 0.648438C24.1309 0.578125 24.2129 0.523438 24.3066 0.484375C24.4004 0.445312 24.502 0.425781 24.6113 0.425781H31.4727V1.94922Z" fill="black"/>
<path d="M22.0625 8.82812H20.5391V0.425781H22.0625V8.82812Z" fill="black"/>
<path d="M11.8672 3.85938H17.2168V0.425781H18.7402V8.82812H17.2168V5.39453H11.8672V8.82812H10.3438V0.425781H11.8672V3.85938Z" fill="black"/>
<path d="M9.06445 6.35547C9.06445 6.65625 9.02539 6.92773 8.94727 7.16992C8.87305 7.4082 8.77344 7.61914 8.64844 7.80273C8.52344 7.98633 8.37695 8.14258 8.20898 8.27148C8.04102 8.40039 7.86719 8.50586 7.6875 8.58789C7.50781 8.66992 7.32422 8.73047 7.13672 8.76953C6.95312 8.80859 6.7793 8.82812 6.61523 8.82812H0.738281V7.30469H6.61523C6.9082 7.30469 7.13477 7.21875 7.29492 7.04688C7.45898 6.875 7.54102 6.64453 7.54102 6.35547C7.54102 6.21484 7.51953 6.08594 7.47656 5.96875C7.43359 5.85156 7.37109 5.75 7.28906 5.66406C7.21094 5.57812 7.11328 5.51172 6.99609 5.46484C6.88281 5.41797 6.75586 5.39453 6.61523 5.39453H3.11133C2.86523 5.39453 2.59961 5.35156 2.31445 5.26562C2.0293 5.17578 1.76367 5.0332 1.51758 4.83789C1.27539 4.64258 1.07227 4.38672 0.908203 4.07031C0.748047 3.75391 0.667969 3.36719 0.667969 2.91016C0.667969 2.45312 0.748047 2.06836 0.908203 1.75586C1.07227 1.43945 1.27539 1.18359 1.51758 0.988281C1.76367 0.789062 2.0293 0.646484 2.31445 0.560547C2.59961 0.470703 2.86523 0.425781 3.11133 0.425781H8.29688V1.94922H3.11133C2.82227 1.94922 2.5957 2.03711 2.43164 2.21289C2.27148 2.38867 2.19141 2.62109 2.19141 2.91016C2.19141 3.20312 2.27148 3.43555 2.43164 3.60742C2.5957 3.77539 2.82227 3.85938 3.11133 3.85938H6.61523H6.62695C6.79102 3.86328 6.96484 3.88672 7.14844 3.92969C7.33203 3.96875 7.51367 4.03125 7.69336 4.11719C7.87695 4.20312 8.05078 4.3125 8.21484 4.44531C8.37891 4.57422 8.52344 4.73047 8.64844 4.91406C8.77734 5.09766 8.87891 5.30859 8.95312 5.54688C9.02734 5.78516 9.06445 6.05469 9.06445 6.35547Z" fill="black"/>
<path d="M47.7441 16.0312C47.7441 16.332 47.7051 16.6035 47.627 16.8457C47.5527 17.084 47.4531 17.2949 47.3281 17.4785C47.2031 17.6621 47.0566 17.8184 46.8887 17.9473C46.7207 18.0762 46.5469 18.1816 46.3672 18.2637C46.1875 18.3457 46.0039 18.4062 45.8164 18.4453C45.6328 18.4844 45.459 18.5039 45.2949 18.5039H39.418V16.9805H45.2949C45.5879 16.9805 45.8145 16.8945 45.9746 16.7227C46.1387 16.5508 46.2207 16.3203 46.2207 16.0312C46.2207 15.8906 46.1992 15.7617 46.1562 15.6445C46.1133 15.5273 46.0508 15.4258 45.9688 15.3398C45.8906 15.2539 45.793 15.1875 45.6758 15.1406C45.5625 15.0938 45.4355 15.0703 45.2949 15.0703H41.791C41.5449 15.0703 41.2793 15.0273 40.9941 14.9414C40.709 14.8516 40.4434 14.709 40.1973 14.5137C39.9551 14.3184 39.752 14.0625 39.5879 13.7461C39.4277 13.4297 39.3477 13.043 39.3477 12.5859C39.3477 12.1289 39.4277 11.7441 39.5879 11.4316C39.752 11.1152 39.9551 10.8594 40.1973 10.6641C40.4434 10.4648 40.709 10.3223 40.9941 10.2363C41.2793 10.1465 41.5449 10.1016 41.791 10.1016H46.9766V11.625H41.791C41.502 11.625 41.2754 11.7129 41.1113 11.8887C40.9512 12.0645 40.8711 12.2969 40.8711 12.5859C40.8711 12.8789 40.9512 13.1113 41.1113 13.2832C41.2754 13.4512 41.502 13.5352 41.791 13.5352H45.2949H45.3066C45.4707 13.5391 45.6445 13.5625 45.8281 13.6055C46.0117 13.6445 46.1934 13.707 46.373 13.793C46.5566 13.8789 46.7305 13.9883 46.8945 14.1211C47.0586 14.25 47.2031 14.4062 47.3281 14.5898C47.457 14.7734 47.5586 14.9844 47.6328 15.2227C47.707 15.4609 47.7441 15.7305 47.7441 16.0312Z" fill="black"/>
<path d="M38.1387 12.9258C38.1387 13.2734 38.0957 13.584 38.0098 13.8574C37.9238 14.1309 37.8066 14.373 37.6582 14.584C37.5137 14.791 37.3457 14.9688 37.1543 15.1172C36.9629 15.2656 36.7617 15.3887 36.5508 15.4863C36.3438 15.5801 36.1328 15.6484 35.918 15.6914C35.707 15.7344 35.5078 15.7559 35.3203 15.7559L38.502 18.5039H36.1465L32.9707 15.7559H31.875V14.2324H35.3203C35.5117 14.2168 35.6855 14.1777 35.8418 14.1152C36.002 14.0488 36.1387 13.9609 36.252 13.8516C36.3691 13.7422 36.459 13.6113 36.5215 13.459C36.584 13.3027 36.6152 13.125 36.6152 12.9258V11.9648C36.6152 11.8789 36.6035 11.8145 36.5801 11.7715C36.5605 11.7246 36.5332 11.6914 36.498 11.6719C36.4668 11.6484 36.4316 11.6348 36.3926 11.6309C36.3574 11.627 36.3242 11.625 36.293 11.625H31.2656V18.5039H29.7422V10.8691C29.7422 10.7637 29.7617 10.6641 29.8008 10.5703C29.8398 10.4766 29.8926 10.3945 29.959 10.3242C30.0293 10.2539 30.1113 10.1992 30.2051 10.1602C30.2988 10.1211 30.4004 10.1016 30.5098 10.1016H36.293C36.6328 10.1016 36.9199 10.1641 37.1543 10.2891C37.3887 10.4102 37.5781 10.5645 37.7227 10.752C37.8711 10.9355 37.9766 11.1348 38.0391 11.3496C38.1055 11.5645 38.1387 11.7656 38.1387 11.9531V12.9258Z" fill="black"/>
<path d="M27.9688 18.5039H26.4453V16.4414H21.0898V18.5039H19.5664V14.3027C19.5664 13.6895 19.6719 13.125 19.8828 12.6094C20.0938 12.0938 20.3867 11.6504 20.7617 11.2793C21.1367 10.9082 21.5801 10.6191 22.0918 10.4121C22.6035 10.2051 23.1621 10.1016 23.7676 10.1016H27.2012C27.3066 10.1016 27.4062 10.1211 27.5 10.1602C27.5938 10.1992 27.6758 10.2539 27.7461 10.3242C27.8164 10.3945 27.8711 10.4766 27.9102 10.5703C27.9492 10.6641 27.9688 10.7637 27.9688 10.8691V18.5039ZM21.0898 14.918H26.4453V11.625H23.7676C23.7207 11.625 23.6211 11.6328 23.4688 11.6484C23.3203 11.6602 23.1465 11.6934 22.9473 11.748C22.752 11.8027 22.5449 11.8867 22.3262 12C22.1074 12.1133 21.9062 12.2695 21.7227 12.4688C21.5391 12.668 21.3867 12.918 21.2656 13.2188C21.1484 13.5156 21.0898 13.877 21.0898 14.3027V14.918Z" fill="black"/>
<path d="M17.5605 15.0703H12.75V13.5352H17.5605V15.0703ZM18.2461 18.5039H12.75C12.5391 18.5039 12.3086 18.4668 12.0586 18.3926C11.8086 18.3184 11.5762 18.1973 11.3613 18.0293C11.1504 17.8574 10.9727 17.6367 10.8281 17.3672C10.6875 17.0938 10.6172 16.7598 10.6172 16.3652V10.8691C10.6172 10.7637 10.6367 10.6641 10.6758 10.5703C10.7148 10.4766 10.7676 10.3945 10.834 10.3242C10.9043 10.2539 10.9863 10.1992 11.0801 10.1602C11.1738 10.1211 11.2754 10.1016 11.3848 10.1016H18.2461V11.625H12.1406V16.3652C12.1406 16.5645 12.1934 16.7168 12.2988 16.8223C12.4043 16.9277 12.5586 16.9805 12.7617 16.9805H18.2461V18.5039Z" fill="black"/>
<path d="M9.06641 17.7363C9.06641 17.8457 9.04688 17.9473 9.00781 18.041C8.96875 18.1348 8.91406 18.2168 8.84375 18.2871C8.77734 18.3535 8.69727 18.4062 8.60352 18.4453C8.50977 18.4844 8.4082 18.5039 8.29883 18.5039H2.80273C2.66211 18.5039 2.50977 18.4883 2.3457 18.457C2.18555 18.4219 2.02539 18.3691 1.86523 18.2988C1.70898 18.2285 1.55859 18.1387 1.41406 18.0293C1.26953 17.916 1.14062 17.7812 1.02734 17.625C0.917969 17.4648 0.830078 17.2812 0.763672 17.0742C0.697266 16.8633 0.664062 16.627 0.664062 16.3652V12.2402C0.664062 12.0996 0.679688 11.9492 0.710938 11.7891C0.746094 11.625 0.798828 11.4648 0.869141 11.3086C0.939453 11.1484 1.03125 10.9961 1.14453 10.8516C1.25781 10.707 1.39258 10.5801 1.54883 10.4707C1.70898 10.3574 1.89258 10.2676 2.09961 10.2012C2.30664 10.1348 2.54102 10.1016 2.80273 10.1016H8.99609V11.625H2.80273C2.60352 11.625 2.45117 11.6777 2.3457 11.7832C2.24023 11.8887 2.1875 12.0449 2.1875 12.252V16.3652C2.1875 16.5605 2.24023 16.7129 2.3457 16.8223C2.45508 16.9277 2.60742 16.9805 2.80273 16.9805H7.54297V15.0703H3.48828V13.5352H8.29883C8.4082 13.5352 8.50977 13.5566 8.60352 13.5996C8.69727 13.6387 8.77734 13.6934 8.84375 13.7637C8.91406 13.834 8.96875 13.916 9.00781 14.0098C9.04688 14.0996 9.06641 14.1973 9.06641 14.3027V17.7363Z" fill="black"/>
<path d="M49.9346 6.02246C49.9346 6.15039 49.9126 6.26807 49.8687 6.37549C49.8247 6.48291 49.7637 6.57568 49.6855 6.65381C49.6074 6.73193 49.5146 6.79297 49.4072 6.83691C49.3008 6.87988 49.1846 6.90137 49.0586 6.90137H48.543C48.417 6.90137 48.3003 6.87988 48.1929 6.83691C48.0854 6.79297 47.9927 6.73193 47.9146 6.65381C47.8364 6.57568 47.7749 6.48291 47.73 6.37549C47.686 6.26807 47.6641 6.15039 47.6641 6.02246V5.62109C47.6641 5.49414 47.686 5.37695 47.73 5.26953C47.7749 5.16113 47.8364 5.06836 47.9146 4.99121C47.9927 4.91309 48.0854 4.85205 48.1929 4.80811C48.3003 4.76416 48.417 4.74219 48.543 4.74219H49.0586C49.1846 4.74219 49.3008 4.76416 49.4072 4.80811C49.5146 4.85205 49.6074 4.91309 49.6855 4.99121C49.7637 5.06836 49.8247 5.16113 49.8687 5.26953C49.9126 5.37695 49.9346 5.49414 49.9346 5.62109V6.02246ZM49.5537 5.62109C49.5537 5.5459 49.5415 5.47803 49.5171 5.41748C49.4937 5.35596 49.46 5.30371 49.416 5.26074C49.373 5.2168 49.3208 5.18311 49.2593 5.15967C49.1987 5.13525 49.1318 5.12305 49.0586 5.12305H48.543C48.4688 5.12305 48.4009 5.13525 48.3394 5.15967C48.2788 5.18311 48.2266 5.2168 48.1826 5.26074C48.1387 5.30371 48.1045 5.35596 48.0801 5.41748C48.0566 5.47803 48.0449 5.5459 48.0449 5.62109V6.02246C48.0449 6.09766 48.0566 6.16602 48.0801 6.22754C48.1045 6.28809 48.1387 6.34033 48.1826 6.38428C48.2266 6.42725 48.2788 6.46094 48.3394 6.48535C48.4009 6.50879 48.4688 6.52051 48.543 6.52051H49.0557C49.1299 6.52051 49.1973 6.50879 49.2578 6.48535C49.3193 6.46094 49.3721 6.42725 49.416 6.38428C49.46 6.34033 49.4937 6.28809 49.5171 6.22754C49.5415 6.16602 49.5537 6.09766 49.5537 6.02246V5.62109Z" fill="white"/>
<path d="M47.2847 6.87082H46.9009V5.61985L46.2256 6.80783C46.209 6.83811 46.1855 6.86106 46.1553 6.87668C46.126 6.89231 46.0942 6.90012 46.0601 6.90012C46.0269 6.90012 45.9956 6.89231 45.9663 6.87668C45.938 6.86106 45.9155 6.83811 45.8989 6.80783L45.2207 5.61985V6.87082H44.8398V4.93283C44.8398 4.88889 44.8525 4.84983 44.8779 4.81565C44.9043 4.78147 44.9385 4.75852 44.9805 4.7468C45.001 4.74192 45.0215 4.74045 45.042 4.7424C45.0625 4.74338 45.082 4.74778 45.1006 4.75559C45.1201 4.76242 45.1377 4.77268 45.1533 4.78635C45.1689 4.79905 45.1821 4.81467 45.1929 4.83322L46.0601 6.34055L46.9272 4.83322C46.9497 4.79612 46.9805 4.76975 47.0195 4.75412C47.0596 4.7385 47.1011 4.73606 47.144 4.7468C47.1851 4.75852 47.2188 4.78147 47.2451 4.81565C47.2715 4.84983 47.2847 4.88889 47.2847 4.93283V6.87082Z" fill="white"/>
<path d="M44.3022 6.01172H43.0996V5.62793H44.3022V6.01172ZM44.4736 6.87012H43.0996C43.0469 6.87012 42.9893 6.86084 42.9268 6.84229C42.8643 6.82373 42.8062 6.79346 42.7524 6.75146C42.6997 6.7085 42.6553 6.65332 42.6191 6.58594C42.584 6.51758 42.5664 6.43408 42.5664 6.33545V4.96143C42.5664 4.93506 42.5713 4.91016 42.5811 4.88672C42.5908 4.86328 42.604 4.84277 42.6206 4.8252C42.6382 4.80762 42.6587 4.79395 42.6821 4.78418C42.7056 4.77441 42.731 4.76953 42.7583 4.76953H44.4736V5.15039H42.9473V6.33545C42.9473 6.38525 42.9604 6.42334 42.9868 6.44971C43.0132 6.47607 43.0518 6.48926 43.1025 6.48926H44.4736V6.87012Z" fill="white"/>
<path d="M42.2007 5.99121C42.2007 6.11914 42.1782 6.23682 42.1333 6.34424C42.0894 6.45166 42.0283 6.54443 41.9502 6.62256C41.8721 6.69971 41.7793 6.76025 41.6719 6.8042C41.5645 6.84814 41.4478 6.87012 41.3218 6.87012H40.2935C40.2661 6.87012 40.2407 6.86523 40.2173 6.85547C40.1938 6.8457 40.1733 6.83252 40.1558 6.81592C40.1392 6.79834 40.126 6.77783 40.1162 6.75439C40.1064 6.73096 40.1016 6.70557 40.1016 6.67822V4.96143C40.1016 4.93506 40.1064 4.91016 40.1162 4.88672C40.126 4.86328 40.1392 4.84277 40.1558 4.8252C40.1733 4.80762 40.1938 4.79395 40.2173 4.78418C40.2407 4.77441 40.2661 4.76953 40.2935 4.76953H41.3218C41.4478 4.76953 41.5645 4.7915 41.6719 4.83545C41.7793 4.87939 41.8721 4.94043 41.9502 5.01855C42.0283 5.0957 42.0894 5.18848 42.1333 5.29688C42.1782 5.4043 42.2007 5.52148 42.2007 5.64844V5.99121ZM41.8198 5.64844C41.8198 5.57422 41.8076 5.50635 41.7832 5.44482C41.7598 5.3833 41.7261 5.33105 41.6821 5.28809C41.6382 5.24414 41.5854 5.21045 41.5239 5.18701C41.4634 5.1626 41.396 5.15039 41.3218 5.15039H40.4824V6.48926H41.3218C41.396 6.48926 41.4634 6.47754 41.5239 6.4541C41.5854 6.42969 41.6382 6.396 41.6821 6.35303C41.7261 6.30908 41.7598 6.25684 41.7832 6.19629C41.8076 6.13477 41.8198 6.06641 41.8198 5.99121V5.64844Z" fill="white"/>
</svg>
