<svg width="28" height="35" viewBox="0 0 28 35" fill="none" xmlns="http://www.w3.org/2000/svg">
<path d="M20.8215 17.5C20.8215 21.5107 17.5707 24.7628 13.5601 24.7632C9.67463 24.7632 6.50193 21.7113 6.30713 17.8743L6.29688 17.5V7.26318C6.29688 3.25222 9.54909 0 13.5601 0C17.5707 0.000369298 20.8215 3.25244 20.8215 7.26318V17.5Z" fill="#F3F4F8"/>
<path d="M11.8125 33.2498V30.1582C5.14919 29.2995 0 23.6089 0 16.7119C0 15.7454 0.783502 14.9619 1.75 14.9619C2.7165 14.9619 3.5 15.7454 3.5 16.7119C3.5 22.2691 8.00535 26.7744 13.5625 26.7744C19.1197 26.7744 23.625 22.2691 23.625 16.7119C23.625 15.7454 24.4085 14.9619 25.375 14.9619C26.3415 14.9619 27.125 15.7454 27.125 16.7119C27.125 23.6089 21.9758 29.2995 15.3125 30.1582V33.2498C15.3123 34.2161 14.5289 34.9998 13.5625 34.9998C12.5961 34.9998 11.8127 34.2161 11.8125 33.2498Z" fill="#F3F4F8"/>
</svg>
