<svg width="270" height="161" viewBox="0 0 270 161" fill="none" xmlns="http://www.w3.org/2000/svg">
<path d="M230.898 140.568C228.634 140.568 226.545 139.987 224.629 138.827C222.714 137.666 221.176 136.128 220.015 134.212C218.854 132.297 218.274 130.207 218.274 127.944V125.419H231.594V127.247H256.146V122.023H230.898C228.634 122.023 226.545 121.443 224.629 120.282C222.714 119.121 221.176 117.583 220.015 115.668C218.854 113.752 218.274 111.663 218.274 109.399V102.695C218.274 100.432 218.854 98.3421 220.015 96.4267C221.176 94.5113 222.714 92.9732 224.629 91.8123C226.545 90.6515 228.634 90.071 230.898 90.071H256.843C259.165 90.071 261.283 90.6515 263.199 91.8123C265.114 92.9732 266.652 94.5113 267.813 96.4267C268.974 98.3421 269.554 100.432 269.554 102.695V105.22H256.146V103.392H231.594V108.616H256.843C259.165 108.616 261.283 109.196 263.199 110.357C265.114 111.518 266.652 113.056 267.813 114.971C268.974 116.887 269.554 118.976 269.554 121.24V127.944C269.554 130.207 268.974 132.297 267.813 134.212C266.652 136.128 265.114 137.666 263.199 138.827C261.283 139.987 259.165 140.568 256.843 140.568H230.898Z" fill="white"/>
<path d="M173.543 140.568V102.695C173.543 100.432 174.124 98.3421 175.284 96.4267C176.445 94.5113 177.983 92.9732 179.899 91.8123C181.814 90.6515 183.933 90.071 186.254 90.071H214.115V103.392H186.864V140.568H173.543Z" fill="white"/>
<path d="M128.344 140.568C126.023 140.568 123.904 139.987 121.989 138.827C120.073 137.666 118.535 136.128 117.374 134.212C116.271 132.297 115.72 130.207 115.72 127.944V108.616H153.593V103.392H115.72V90.071H154.289C156.611 90.071 158.729 90.6515 160.645 91.8123C162.56 92.9732 164.069 94.5113 165.172 96.4267C166.333 98.3421 166.913 100.432 166.913 102.695V140.568H128.344ZM129.041 127.247H153.593V120.282H129.041V127.247Z" fill="white"/>
<path d="M70.3607 140.568C68.097 140.568 66.0075 139.987 64.0921 138.827C62.1767 137.666 60.6386 136.128 59.4777 134.212C58.3169 132.297 57.7365 130.207 57.7365 127.944V102.695C57.7365 100.432 58.3169 98.3421 59.4777 96.4267C60.6386 94.5113 62.1767 92.9732 64.0921 91.8123C66.0075 90.6515 68.097 90.071 70.3607 90.071H96.3056C98.6273 90.071 100.746 90.6515 102.661 91.8123C104.577 92.9732 106.086 94.5113 107.189 96.4267C108.349 98.3421 108.93 100.432 108.93 102.695V122.023H71.0572V127.247H108.93V140.568H70.3607ZM71.0572 110.357H95.6091V103.392H71.0572V110.357Z" fill="white"/>
<path d="M8.00985 160.505V147.098H37.9597V140.568H12.7113C10.3896 140.568 8.27104 139.987 6.35564 138.827C4.44024 137.666 2.90212 136.128 1.74127 134.212C0.580424 132.297 0 130.207 0 127.944V102.695C0 100.432 0.580424 98.3421 1.74127 96.4267C2.90212 94.5113 4.44024 92.9732 6.35564 91.8123C8.27104 90.6515 10.3896 90.071 12.7113 90.071H38.6562C40.9779 90.071 43.0965 90.6515 45.0119 91.8123C46.9273 92.9732 48.4364 94.5113 49.5392 96.4267C50.7 98.3421 51.2804 100.432 51.2804 102.695V147.881C51.2804 150.203 50.7 152.321 49.5392 154.237C48.4364 156.152 46.9273 157.661 45.0119 158.764C43.0965 159.925 40.9779 160.505 38.6562 160.505H8.00985ZM13.3207 127.247H37.9597V103.392H13.3207V127.247Z" fill="white"/>
<path d="M192.527 67.0751C190.206 67.0751 188.087 66.4947 186.172 65.3338C184.256 64.173 182.718 62.6349 181.557 60.7195C180.397 58.8041 179.816 56.7145 179.816 54.4509V0L193.137 0V16.5782H211.856V29.899H193.137V53.7544H211.856V67.0751H192.527Z" fill="white"/>
<path d="M141.317 67.0748V12.6601C141.317 10.3965 141.897 8.30693 143.058 6.39153C144.219 4.47613 145.757 2.93801 147.672 1.77716C149.588 0.616312 151.706 0.0358887 154.028 0.0358887H173.356V13.4437H154.637V16.578H173.356V29.8987H154.637V67.0748H141.317Z" fill="white"/>
<path d="M120 67.0748V16.578H133.321V67.0748H120ZM120 13.4437V0.0358887H133.321V13.4437H120Z" fill="white"/>
<path d="M60.81 67.0389V0H74.1307V16.5421H99.3792C101.643 16.5421 103.732 17.1225 105.648 18.2834C107.563 19.4442 109.101 20.9823 110.262 22.8977C111.423 24.8131 112.003 26.9026 112.003 29.1663V67.0389H98.6827V29.8628H74.1307V67.0389H60.81Z" fill="white"/>
<path d="M12.6242 67.074C10.3606 67.074 8.27104 66.4936 6.35564 65.3327C4.44024 64.1719 2.90212 62.6338 1.74127 60.7184C0.580424 58.803 0 56.7135 0 54.4498V51.925H13.3207V53.7533H37.8727V48.5295H12.6242C10.3606 48.5295 8.27104 47.9491 6.35564 46.7882C4.44024 45.6274 2.90212 44.0892 1.74127 42.1738C0.580424 40.2584 0 38.1689 0 35.9053V29.2014C0 26.9377 0.580424 24.8482 1.74127 22.9328C2.90212 21.0174 4.44024 19.4793 6.35564 18.3184C8.27104 17.1576 10.3606 16.5771 12.6242 16.5771H38.5692C40.8909 16.5771 43.0094 17.1576 44.9248 18.3184C46.8402 19.4793 48.3783 21.0174 49.5392 22.9328C50.7 24.8482 51.2804 26.9377 51.2804 29.2014V31.7262H37.8727V29.8979H13.3207V35.1217H38.5692C40.8909 35.1217 43.0094 35.7021 44.9248 36.863C46.8402 38.0238 48.3783 39.5619 49.5392 41.4773C50.7 43.3927 51.2804 45.4823 51.2804 47.7459V54.4498C51.2804 56.7135 50.7 58.803 49.5392 60.7184C48.3783 62.6338 46.8402 64.1719 44.9248 65.3327C43.0094 66.4936 40.8909 67.074 38.5692 67.074H12.6242Z" fill="white"/>
<path d="M269.554 0.0358887V50.5311H256.24V22.771L228.48 50.5311L219.059 41.119L246.819 13.359H219.059V0.0358887H269.554Z" fill="url(#paint0_linear_94_878)"/>
<defs>
<linearGradient id="paint0_linear_94_878" x1="273.537" y1="-7.02704" x2="211.236" y2="70.4496" gradientUnits="userSpaceOnUse">
<stop offset="0.115385" stop-color="#2A01F8"/>
<stop offset="0.524038" stop-color="#2F83FF"/>
</linearGradient>
</defs>
</svg>
